<svg xmlns="http://www.w3.org/2000/svg" width="1200" height="630" viewBox="0 0 1200 630" role="img" aria-labelledby="title desc">
  <title id="title">QorMed</title>
  <desc id="desc">Medical information system landing preview</desc>
  <defs>
    <radialGradient id="glow" cx="78%" cy="20%" r="70%">
      <stop offset="0%" stop-color="#9cf6b4" stop-opacity="0.32"/>
      <stop offset="46%" stop-color="#0e5d46" stop-opacity="0.14"/>
      <stop offset="100%" stop-color="#041511" stop-opacity="0"/>
    </radialGradient>
    <linearGradient id="panel" x1="0" y1="0" x2="1" y2="1">
      <stop offset="0%" stop-color="#0e5d46"/>
      <stop offset="100%" stop-color="#041511"/>
    </linearGradient>
  </defs>
  <rect width="1200" height="630" fill="#041511"/>
  <rect width="1200" height="630" fill="url(#glow)"/>
  <path d="M96 82h48c48 0 86 38 86 86v48h-48c-48 0-86-38-86-86V82Z" fill="#9cf6b4"/>
  <path d="M141 122h46c9 0 16 7 16 16v46h-46c-9 0-16-7-16-16v-46Z" fill="#041511"/>
  <path d="M62 178h54v54H62z" fill="#9cf6b4"/>
  <text x="275" y="145" fill="#f5fff9" font-family="Inter, Arial, sans-serif" font-size="62" font-weight="800">QorMed</text>
  <text x="277" y="188" fill="#9cf6b4" font-family="Inter, Arial, sans-serif" font-size="22" font-weight="700">информационная система</text>
  <text x="96" y="332" fill="#f5fff9" font-family="Inter, Arial, sans-serif" font-size="62" font-weight="850">Клиника в одном</text>
  <text x="96" y="402" fill="#f5fff9" font-family="Inter, Arial, sans-serif" font-size="62" font-weight="850">цифровом контуре</text>
  <text x="100" y="466" fill="#b8c9c0" font-family="Inter, Arial, sans-serif" font-size="26">Пациенты, расписание, оплаты, отчеты и KPI</text>
  <g transform="translate(760 140) rotate(-8)">
    <rect width="315" height="220" rx="18" fill="url(#panel)" stroke="#5be58a" stroke-opacity="0.32"/>
    <rect x="28" y="34" width="150" height="34" rx="10" fill="#f5fff9" fill-opacity="0.1"/>
    <rect x="28" y="88" width="240" height="28" rx="10" fill="#9cf6b4" fill-opacity="0.22"/>
    <rect x="28" y="132" width="92" height="50" rx="12" fill="#7ab8ff" fill-opacity="0.18"/>
    <rect x="138" y="132" width="130" height="50" rx="12" fill="#9cf6b4" fill-opacity="0.18"/>
  </g>
  <g transform="translate(690 378)">
    <rect width="390" height="96" rx="16" fill="#f5fff9" fill-opacity="0.08" stroke="#f5fff9" stroke-opacity="0.12"/>
    <circle cx="54" cy="48" r="18" fill="#9cf6b4"/>
    <text x="90" y="42" fill="#f5fff9" font-family="Inter, Arial, sans-serif" font-size="20" font-weight="800">Пациент → прием → оплата</text>
    <text x="90" y="68" fill="#9cf6b4" font-family="Inter, Arial, sans-serif" font-size="18" font-weight="700">KPI +18%</text>
  </g>
</svg>
